<svg width="15" height="18" viewBox="0 0 15 18" fill="none" xmlns="http://www.w3.org/2000/svg">
<path d="M11.973 15.2673C11.1072 16.1066 10.1618 15.9741 9.25177 15.5765C8.28873 15.1701 7.4052 15.1524 6.38915 15.5765C5.11688 16.1243 4.4454 15.9653 3.68557 15.2673C-0.626029 10.8232 0.0101082 4.05538 4.90483 3.80799C6.09759 3.86984 6.9281 4.4618 7.62609 4.51481C8.66865 4.30276 9.66703 3.69313 10.7803 3.77265C12.1144 3.87867 13.1216 4.40879 13.7843 5.36299C11.0277 7.01518 11.6815 10.6465 14.2083 11.6625C13.7047 12.9878 13.0509 14.3043 11.9642 15.2761L11.973 15.2673ZM7.53773 3.75498C7.40521 1.78472 9.00438 0.159034 10.8421 0C11.0983 2.27949 8.77467 3.97586 7.53773 3.75498Z" fill="#28282B"/>
</svg>
