<svg width="15" height="16" viewBox="0 0 15 16" fill="none" xmlns="http://www.w3.org/2000/svg">
<g clip-path="url(#clip0_3392_737)">
<path d="M14.8596 7.74967C14.8596 7.12632 14.809 6.67143 14.6995 6.19971H7.58142V9.01322H11.7596C11.6754 9.71242 11.2205 10.7654 10.2096 11.473L10.1955 11.5672L12.4461 13.3107L12.602 13.3262C14.034 12.0037 14.8596 10.0578 14.8596 7.74967Z" fill="#4285F4"/>
<path d="M7.58146 15.1625C9.62842 15.1625 11.3469 14.4886 12.602 13.3262L10.2097 11.4729C9.56947 11.9193 8.71023 12.231 7.58146 12.231C5.57661 12.231 3.87502 10.9085 3.26845 9.08057L3.17954 9.08812L0.83932 10.8992L0.808716 10.9843C2.05542 13.4609 4.61626 15.1625 7.58146 15.1625Z" fill="#34A853"/>
<path d="M3.2684 9.08068C3.10835 8.60895 3.01572 8.10348 3.01572 7.58123C3.01572 7.05893 3.10835 6.55352 3.25998 6.08179L3.25574 5.98133L0.886192 4.14111L0.808665 4.17799C0.294836 5.20571 0 6.35979 0 7.58123C0 8.80268 0.294836 9.95671 0.808665 10.9844L3.2684 9.08068Z" fill="#FBBC05"/>
<path d="M7.58146 2.93146C9.00506 2.93146 9.96536 3.54639 10.5129 4.06028L12.6526 1.97117C11.3385 0.749721 9.62842 0 7.58146 0C4.61626 0 2.05542 1.70159 0.808716 4.17817L3.26003 6.08197C3.87502 4.25401 5.57661 2.93146 7.58146 2.93146Z" fill="#EB4335"/>
</g>
<defs>
<clipPath id="clip0_3392_737">
<rect width="14.8667" height="15.2151" fill="white"/>
</clipPath>
</defs>
</svg>
