<svg width="94" height="21" viewBox="0 0 94 21" fill="none" xmlns="http://www.w3.org/2000/svg">
<path d="M0 0.605594L5.4071 0.576813C6.91838 5.14237 8.84317 9.58904 10.2481 14.1835C12.1534 9.68904 13.8159 5.08681 15.7111 0.5847L20.2401 0.593035C22.089 4.88015 23.9063 10.0079 25.2846 14.4657C26.1863 12.8602 26.9787 11.1757 27.8157 9.53237C29.3324 6.54126 30.8751 3.56248 32.4437 0.598039L37.0712 0.578813C40.5317 6.84348 44.0251 13.0901 47.5512 19.3179C47.1937 19.6713 42.7089 19.4913 41.8945 19.489C40.5192 17.229 39.3484 14.7879 38.0989 12.4524C36.9383 10.2824 35.6603 8.15237 34.5839 5.94126C33.215 8.49793 31.9159 11.099 30.5972 13.6824C29.6168 15.6046 28.5817 17.5179 27.6961 19.4846H22.3742C21.5392 16.2713 20.2824 13.0679 19.1844 9.93237C18.7028 8.55793 18.1857 7.20126 17.8506 5.78015C15.9355 10.2979 14.4138 14.979 12.4836 19.4913L7.32384 19.4879C6.24493 17.1157 5.41283 14.5568 4.47989 12.119L0 0.605594Z" fill="#28282B"/>
<path d="M76.8622 0.575714C82.4569 0.688936 88.0749 0.578719 93.6719 0.572052L93.652 3.85905C89.7552 3.94561 85.8474 3.89116 81.9483 3.89649L81.9671 8.23571C85.5649 8.16127 89.1682 8.23127 92.7672 8.19683V11.5079C90.2086 11.5413 87.649 11.5424 85.0894 11.5135L81.9638 11.5168L81.9671 16.2568L93.8716 16.2535L93.8793 19.4935C88.2128 19.4113 82.5331 19.4813 76.8655 19.4735L76.8622 0.575714Z" fill="#28282B"/>
<path d="M61.179 0.0860458C62.8262 -0.0855097 64.49 -0.000173701 66.1118 0.338826C69.4327 1.06505 71.6746 2.76504 73.5005 5.59571C71.9978 5.97349 70.5139 6.55461 69.0443 7.04794C68.7586 6.50683 68.4309 5.98905 68.0172 5.53682C66.7826 4.18749 65.1078 3.59294 63.3172 3.56338C61.3566 3.53105 59.4601 3.92582 58.028 5.38793C56.7614 6.68127 56.1988 8.50794 56.2076 10.2957C56.2153 11.9979 56.7637 13.7057 58.0026 14.9113C59.3376 16.2091 61.2309 16.6779 63.0425 16.6324C65.0736 16.5813 66.7605 16.0268 68.1838 14.5202C68.5523 13.9957 68.8546 13.3991 69.1734 12.8402C70.6011 13.4357 72.0629 13.9446 73.5182 14.4679C73.2622 15.0024 72.9577 15.5113 72.608 15.989C70.9122 18.2979 68.3548 19.4846 65.5844 19.8968C61.8498 20.4535 57.4973 19.939 54.4159 17.5879C52.334 16.0002 51.0354 13.6135 50.6945 11.0113C50.3856 8.64682 51.0586 6.33349 52.4983 4.45127C54.6056 1.6986 57.8603 0.510268 61.179 0.0860458Z" fill="#28282B"/>
<ellipse cx="47" cy="10" rx="2.64789" ry="2.66667" fill="#386FDE"/>
</svg>
