<svg width="15" height="15" viewBox="0 0 15 15" fill="none" xmlns="http://www.w3.org/2000/svg">
<g clip-path="url(#clip0_3392_128)">
<path d="M7.43329 0C11.4104 0 14.6351 3.22477 14.6351 7.20185C14.6351 11.1789 11.4104 14.4037 7.43329 14.4037C3.45621 14.4037 0.231445 11.1789 0.231445 7.20185C0.231445 3.22477 3.45621 0 7.43329 0Z" fill="#FC3F1D"/>
<path d="M8.43312 11.3423H9.93774V2.70166H7.74865C5.54759 2.69967 4.39018 3.83113 4.39018 5.49739C4.39018 6.82841 5.02476 7.61065 6.15622 8.41884L4.19263 11.3403H5.82097L8.00807 8.06962L7.24977 7.56076C6.32983 6.94016 5.88284 6.45524 5.88284 5.40959C5.88284 4.48965 6.52939 3.86705 7.76062 3.86705H8.43112L8.43312 11.3423Z" fill="white"/>
</g>
<defs>
<clipPath id="clip0_3392_128">
<rect width="14.8667" height="14.4077" fill="white"/>
</clipPath>
</defs>
</svg>
