<svg width="11" height="11" viewBox="0 0 11 11" fill="none" xmlns="http://www.w3.org/2000/svg">
<path d="M9.93743 1.3333e-05C10.151 0.000994675 10.3556 0.0862823 10.5066 0.237322C10.6577 0.388362 10.743 0.592934 10.7439 0.806535L10.7439 8.41523C10.7478 8.52354 10.7297 8.63151 10.6909 8.7327C10.6521 8.83389 10.5933 8.92622 10.5181 9.0042C10.4428 9.08217 10.3526 9.14419 10.2528 9.18654C10.1531 9.2289 10.0458 9.25072 9.93743 9.25072C9.82905 9.25072 9.72178 9.2289 9.62203 9.18654C9.52227 9.14418 9.43207 9.08217 9.3568 9.0042C9.28153 8.92622 9.22273 8.83389 9.18392 8.7327C9.14511 8.63151 9.12708 8.52354 9.1309 8.41523L9.1309 2.75436L1.37764 10.5076C1.2263 10.659 1.02103 10.744 0.806991 10.744C0.592955 10.744 0.387686 10.659 0.23634 10.5076C0.0849934 10.3563 -3.22577e-05 10.151 -3.22577e-05 9.93697C-3.25949e-05 9.72293 0.0849934 9.51766 0.23634 9.36632L7.9896 1.61306L2.32873 1.61306C2.11975 1.60568 1.9218 1.51748 1.77657 1.36703C1.63134 1.21659 1.55018 1.01564 1.55018 0.806535C1.55018 0.597428 1.63134 0.396485 1.77657 0.246038C1.9218 0.0955923 2.11975 0.00738998 2.32873 1.35437e-05L9.93743 1.3333e-05Z" fill="#FBFBFB"/>
</svg>
