<svg width="14" height="10" viewBox="0 0 14 10" fill="none" xmlns="http://www.w3.org/2000/svg">
<path d="M0.761705 9.14043C0.545889 9.14043 0.365112 9.06731 0.219373 8.92106C0.073634 8.77481 0.000510428 8.59404 2.62656e-06 8.37873C-0.000505175 8.16342 0.0726184 7.98264 0.219373 7.8364C0.366128 7.69015 0.546905 7.61703 0.761705 7.61703H12.9489C13.1648 7.61703 13.3458 7.69015 13.492 7.8364C13.6383 7.98264 13.7112 8.16342 13.7106 8.37873C13.7101 8.59404 13.637 8.77507 13.4913 8.92182C13.3455 9.06858 13.1648 9.14145 12.9489 9.14043H0.761705ZM0.761705 5.33192C0.545889 5.33192 0.365112 5.25879 0.219373 5.11255C0.073634 4.9663 0.000510428 4.78552 2.62656e-06 4.57022C-0.000505175 4.35491 0.0726184 4.17413 0.219373 4.02788C0.366128 3.88164 0.546905 3.80851 0.761705 3.80851H12.9489C13.1648 3.80851 13.3458 3.88164 13.492 4.02788C13.6383 4.17413 13.7112 4.35491 13.7106 4.57022C13.7101 4.78552 13.637 4.96655 13.4913 5.11331C13.3455 5.26006 13.1648 5.33293 12.9489 5.33192H0.761705ZM0.761705 1.52341C0.545889 1.52341 0.365112 1.45028 0.219373 1.30403C0.073634 1.15779 0.000510428 0.97701 2.62656e-06 0.761703C-0.000505175 0.546395 0.0726184 0.365617 0.219373 0.21937C0.366128 0.0731235 0.546905 0 0.761705 0H12.9489C13.1648 0 13.3458 0.0731235 13.492 0.21937C13.6383 0.365617 13.7112 0.546395 13.7106 0.761703C13.7101 0.97701 13.637 1.15804 13.4913 1.3048C13.3455 1.45155 13.1648 1.52442 12.9489 1.52341H0.761705Z" fill="#28282B"/>
</svg>
