<svg width="14" height="14" viewBox="0 0 14 14" fill="none" xmlns="http://www.w3.org/2000/svg">
<path d="M7.21134 0.00138901C2.58098 -0.0969677 -0.713721 5.04776 1.31069 9.2082C1.31059 9.20812 0.0251454 13.1082 0.0251454 13.1082C-0.0993986 13.4488 0.261718 13.8109 0.602072 13.6851C0.602059 13.6851 4.50213 12.4001 4.50213 12.4001C5.36103 12.7965 6.27124 12.9973 7.21134 12.9973C15.8289 12.6419 15.8314 0.35784 7.21134 0.00138901ZM7.21134 12.0835C6.35066 12.0835 5.51808 11.887 4.73682 11.4993C4.62884 11.4462 4.5048 11.4372 4.39103 11.4747L1.17674 12.5337L2.23597 9.31966C2.27345 9.20566 2.26453 9.08117 2.21098 8.97364C1.82369 8.19216 1.62693 7.35958 1.62693 6.49935C1.62693 3.42025 4.13224 0.915165 7.21134 0.915165C14.6185 1.22169 14.6178 11.7775 7.21134 12.0835Z" fill="#28282B"/>
</svg>
