<svg width="9" height="9" viewBox="0 0 9 9" fill="none" xmlns="http://www.w3.org/2000/svg">
<path d="M8.94606 1.41254V2.35423H7.53352V3.76676H6.59183V2.35423H5.1793V1.41254H6.59183V0H7.53352V1.41254H8.94606ZM7.53352 8.00437H0.94169V1.41254H3.76676V0.470845H0.94169C0.692167 0.47159 0.453078 0.571043 0.276638 0.747483C0.100198 0.923923 0.000745219 1.16301 0 1.41254V8.00437C0.000745219 8.25389 0.100198 8.49298 0.276638 8.66942C0.453078 8.84586 0.692167 8.94531 0.94169 8.94606H7.53352C7.78304 8.94531 8.02213 8.84586 8.19857 8.66942C8.37501 8.49298 8.47447 8.25389 8.47521 8.00437V5.1793H7.53352V8.00437Z" fill="#28282B"/>
</svg>
