<svg width="9" height="9" viewBox="0 0 9 9" fill="none" xmlns="http://www.w3.org/2000/svg">
<path d="M3.06049 6.12099C2.20512 6.12099 1.48128 5.82467 0.888956 5.23203C0.296633 4.63939 0.000314146 3.91555 2.49124e-07 3.06049C-0.000313648 2.20544 0.296005 1.48159 0.888956 0.888956C1.48191 0.296319 2.20575 0 3.06049 0C3.91523 0 4.63924 0.296319 5.2325 0.888956C5.82577 1.48159 6.12193 2.20544 6.12099 3.06049C6.12099 3.40578 6.06605 3.73145 5.95619 4.0375C5.84633 4.34355 5.69723 4.61428 5.50889 4.8497L8.14562 7.48644C8.23194 7.57276 8.2751 7.68262 8.2751 7.81603C8.2751 7.94943 8.23194 8.0593 8.14562 8.14562C8.0593 8.23194 7.94943 8.2751 7.81603 8.2751C7.68262 8.2751 7.57276 8.23194 7.48644 8.14562L4.8497 5.50889C4.61428 5.69723 4.34355 5.84633 4.0375 5.95619C3.73145 6.06605 3.40578 6.12099 3.06049 6.12099ZM3.06049 5.1793C3.64905 5.1793 4.1494 4.97338 4.56155 4.56155C4.97369 4.14971 5.17961 3.64936 5.1793 3.06049C5.17898 2.47162 4.97307 1.97143 4.56155 1.55991C4.15003 1.14839 3.64968 0.942318 3.06049 0.94169C2.47131 0.941062 1.97111 1.14714 1.55991 1.55991C1.14871 1.97268 0.942632 2.47288 0.94169 3.06049C0.940749 3.64811 1.14682 4.14846 1.55991 4.56155C1.973 4.97464 2.47319 5.18055 3.06049 5.1793Z" fill="#28282B"/>
</svg>
