<svg width="8" height="8" viewBox="0 0 8 8" fill="none" xmlns="http://www.w3.org/2000/svg">
<path d="M1.55095 1.93848H1.1632C0.95752 1.93848 0.760269 2.02018 0.614834 2.16562C0.4694 2.31105 0.387695 2.5083 0.387695 2.71398V6.20373C0.387695 6.4094 0.4694 6.60666 0.614834 6.75209C0.760269 6.89752 0.95752 6.97923 1.1632 6.97923H4.65295C4.85862 6.97923 5.05587 6.89752 5.20131 6.75209C5.34674 6.60666 5.42845 6.4094 5.42845 6.20373V5.81598" stroke="#75757E" stroke-width="0.7755" stroke-linecap="round" stroke-linejoin="round"/>
<path d="M5.04067 1.16324L6.20392 2.32649M6.74095 1.77782C6.89367 1.62511 6.97946 1.41798 6.97946 1.20201C6.97946 0.986042 6.89367 0.778917 6.74095 0.626203C6.58824 0.473489 6.38111 0.387695 6.16514 0.387695C5.94917 0.387695 5.74205 0.473489 5.58933 0.626203L2.32642 3.87749V5.04074H3.48967L6.74095 1.77782Z" stroke="#75757E" stroke-width="0.7755" stroke-linecap="round" stroke-linejoin="round"/>
</svg>
