<svg width="8" height="8" viewBox="0 0 8 8" fill="none" xmlns="http://www.w3.org/2000/svg">
<path d="M1.96191 3.00812C1.96191 2.73059 2.07217 2.46442 2.26841 2.26817C2.46466 2.07192 2.73083 1.96167 3.00837 1.96167H6.40865C6.54608 1.96167 6.68215 1.98874 6.80911 2.04133C6.93608 2.09392 7.05143 2.171 7.14861 2.26817C7.24578 2.36534 7.32286 2.4807 7.37545 2.60766C7.42804 2.73462 7.45511 2.8707 7.45511 3.00812V6.40841C7.45511 6.54583 7.42804 6.68191 7.37545 6.80887C7.32286 6.93583 7.24578 7.05119 7.14861 7.14836C7.05143 7.24554 6.93608 7.32262 6.80911 7.37521C6.68215 7.4278 6.54608 7.45486 6.40865 7.45486H3.00837C2.87094 7.45486 2.73487 7.4278 2.60791 7.37521C2.48095 7.32262 2.36559 7.24554 2.26841 7.14836C2.17124 7.05119 2.09416 6.93583 2.04157 6.80887C1.98898 6.68191 1.96191 6.54583 1.96191 6.40841V3.00812Z" stroke="#386FDE" stroke-width="0.784742" stroke-linecap="round" stroke-linejoin="round"/>
<path d="M0.789413 5.78233C0.668955 5.71389 0.568763 5.61478 0.49902 5.49507C0.429276 5.37537 0.392467 5.23933 0.392334 5.10078V1.17708C0.392334 0.745468 0.745468 0.392334 1.17708 0.392334H5.10078C5.39506 0.392334 5.55515 0.543397 5.68934 0.784705" stroke="#386FDE" stroke-width="0.784742" stroke-linecap="round" stroke-linejoin="round"/>
</svg>
